<?xml version="1.0" encoding="utf-8"?>
<!-- Generator: Adobe Illustrator 19.1.0, SVG Export Plug-In . SVG Version: 6.00 Build 0)  -->
<svg version="1.1" id="Layer_1" xmlns="http://www.w3.org/2000/svg" xmlns:xlink="http://www.w3.org/1999/xlink" x="0px" y="0px"
	 viewBox="0 0 150 150" style="enable-background:new 0 0 150 150;" xml:space="preserve">
<style type="text/css">
	.st0{fill:#030104;}
</style>
<g>
	<path class="st0" d="M74.8,5.8c-38.7,0-70,31.4-70,70s31.4,70,70,70s70-31.4,70-70S113.5,5.8,74.8,5.8z M89.4,114.3
		c-3.6,1.4-6.5,2.5-8.6,3.2c-2.1,0.7-4.6,1.1-7.5,1.1c-4.4,0-7.8-1.1-10.2-3.2c-2.4-2.1-3.6-4.8-3.6-8.1c0-1.3,0.1-2.6,0.3-3.9
		c0.2-1.3,0.5-2.8,0.9-4.5L65.1,83c0.4-1.5,0.7-3,1-4.3c0.3-1.4,0.4-2.6,0.4-3.8c0-2-0.4-3.5-1.3-4.3c-0.8-0.8-2.4-1.2-4.8-1.2
		c-1.2,0-2.4,0.2-3.6,0.5c-1.2,0.4-2.3,0.7-3.1,1l1.2-4.9c3-1.2,5.8-2.2,8.5-3.1c2.7-0.9,5.2-1.3,7.6-1.3c4.3,0,7.7,1.1,10,3.1
		c2.3,2.1,3.5,4.8,3.5,8.2c0,0.7-0.1,1.9-0.2,3.7c-0.2,1.7-0.5,3.3-0.9,4.8L79,97.5c-0.4,1.3-0.7,2.7-1,4.4
		c-0.3,1.6-0.4,2.9-0.4,3.7c0,2.1,0.5,3.6,1.4,4.3c0.9,0.8,2.6,1.2,4.9,1.2c1.1,0,2.3-0.2,3.7-0.6c1.4-0.4,2.4-0.7,3-1L89.4,114.3z
		 M88.6,49.8c-2.1,1.9-4.6,2.9-7.6,2.9c-2.9,0-5.5-1-7.6-2.9c-2.1-1.9-3.2-4.3-3.2-7.1c0-2.8,1.1-5.1,3.2-7.1c2.1-2,4.6-2.9,7.6-2.9
		c2.9,0,5.5,1,7.6,2.9c2.1,2,3.1,4.3,3.1,7.1C91.7,45.5,90.7,47.9,88.6,49.8z"/>
</g>
</svg>
