<?xml version="1.0" encoding="utf-8"?>
<!-- Generator: Adobe Illustrator 19.0.0, SVG Export Plug-In . SVG Version: 6.00 Build 0)  -->
<svg version="1.1" id="Layer_1" xmlns="http://www.w3.org/2000/svg" xmlns:xlink="http://www.w3.org/1999/xlink" x="0px" y="0px"
	 viewBox="0 0 150 150" style="enable-background:new 0 0 150 150;" xml:space="preserve">
<style type="text/css">
	.st0{fill:#010002;}
</style>
<g>
	<path class="st0" d="M143.7,128.8l-61-114.4c-1.5-2.9-4.5-4.7-7.8-4.7h0c-3.2,0-6.2,1.8-7.8,4.6L5.8,128.8c-1.5,2.7-1.4,6,0.2,8.7
		c1.6,2.6,4.5,4.3,7.5,4.3h122.3c3.1,0,6-1.6,7.5-4.3C145.1,134.8,145.2,131.5,143.7,128.8z M74.9,124.2c-4.9,0-8.8-3.9-8.8-8.8
		s3.9-8.8,8.8-8.8c4.8,0,8.8,3.9,8.8,8.8S79.8,124.2,74.9,124.2z M83.7,89.1c0,4.9-3.9,8.8-8.8,8.8c-4.9,0-8.8-3.9-8.8-8.8V53.9
		c0-4.9,3.9-8.8,8.8-8.8c4.8,0,8.8,3.9,8.8,8.8V89.1z"/>
</g>
</svg>
