<?xml version="1.0" encoding="utf-8"?>
<!-- Generator: Adobe Illustrator 19.0.0, SVG Export Plug-In . SVG Version: 6.00 Build 0)  -->
<svg version="1.1" id="Layer_1" xmlns="http://www.w3.org/2000/svg" xmlns:xlink="http://www.w3.org/1999/xlink" x="0px" y="0px"
	 viewBox="0 0 150 150" style="enable-background:new 0 0 150 150;" xml:space="preserve">
<style type="text/css">
	.st0{fill:#030104;}
</style>
<g>
	<path class="st0" d="M74.1,5.1C35.4,5.6,4.5,37.3,5.1,75.9c0.5,38.6,32.3,69.5,70.9,69c38.6-0.5,69.5-32.3,69-70.9
		C144.4,35.4,112.7,4.5,74.1,5.1z M73.9,117.6l-0.4,0c-5.9-0.2-10.1-4.6-10-10.4c0.2-5.8,4.5-9.9,10.2-9.9l0.3,0
		c6.1,0.2,10.3,4.5,10.1,10.5C84,113.5,79.7,117.6,73.9,117.6z M98.9,67.9c-1.4,2-4.5,4.5-8.4,7.5l-4.3,2.9
		c-2.3,1.8-3.8,3.5-4.3,5.2c-0.4,1.3-0.6,1.7-0.7,4.4l0,0.7H65l0-1.4c0.2-5.7,0.3-9,2.7-11.8c3.7-4.3,11.8-9.6,12.2-9.8
		c1.2-0.9,2.1-1.9,2.9-2.9c1.7-2.4,2.5-4.2,2.5-6c0-2.5-0.8-4.9-2.2-7c-1.4-2-4.1-3-8.1-3c-3.9,0-6.6,1.2-8.1,3.8
		c-1.6,2.6-2.5,5.3-2.5,8.1v0.7H47.5l0-0.7c0.4-10.3,4.1-17.7,10.9-22c4.3-2.8,9.6-4.1,15.8-4.1c8.1,0,15,2,20.4,5.9
		c5.5,3.9,8.3,9.9,8.3,17.6C102.9,60.2,101.6,64.2,98.9,67.9z"/>
</g>
</svg>
